# xmcd
# 
# Track frame offsets:
#     150
#     15040
#     32271
#     46544
#     58835
#     73863
#     88568
#     103127
#     119148
#     135720
#     151468
#     165305
# 
# Disc length: 2432
# 
# Revision: 1
# Processed by: cddbd v1.5.2PL0 Copyright (c) Steve Scherf et al.
# Submitted via: fre:ac v1.0.31
# 
DISCID=91097e0c
DTITLE=Easton Corbin - About To Get Real
DYEAR=2015
DGENRE=Country
TTITLE0=Kiss Me On More Time
TTITLE1=Guys And Girls
TTITLE2=Clockwork
TTITLE3=Diggin' On You
TTITLE4=Baby Be My Love Song
TTITLE5=About To Get Real
TTITLE6=Yup
TTITLE7=Wild Women And Whiskey
TTITLE8=Are You With Me
TTITLE9=Damn Girl
TTITLE10=Just Add Water
TTITLE11=Like A Song
EXTD=
EXTT0=
EXTT1=
EXTT2=
EXTT3=
EXTT4=
EXTT5=
EXTT6=
EXTT7=
EXTT8=
EXTT9=
EXTT10=
EXTT11=
PLAYORDER=
